<svg width="380" height="339" viewBox="0 0 380 339" fill="none" xmlns="http://www.w3.org/2000/svg">
<path d="M325.196 226.851L325.408 227.397L260.294 285.072L193.039 338.372L129.069 291.621L71.0598 240.826C74.3596 227.889 79.449 222.6 85.5067 216.304C87.5343 214.197 89.6704 211.977 91.8841 209.32C94.9026 205.697 97.3797 202.9 99.5387 200.463C103.57 195.911 106.493 192.611 109.759 187.524C117.995 188.217 126.629 188.831 133.722 189.115C137.312 189.259 140.513 189.318 143.071 189.259C145.606 189.202 147.574 189.028 148.654 188.677L148.674 188.671L148.692 188.663C154.962 186.054 160.485 183.165 164.645 180.136C168.788 177.12 171.659 173.906 172.485 170.622C172.728 169.657 172.396 168.555 171.774 167.433C171.142 166.295 170.16 165.044 168.95 163.739C166.528 161.127 163.128 158.224 159.586 155.465C152.501 149.944 144.78 144.942 143.005 143.889C142.354 143.502 141.881 142.822 140.969 140.784C140.599 139.958 140.165 138.931 139.62 137.639C139.501 137.358 139.378 137.066 139.248 136.759C138.523 135.045 137.62 132.926 136.457 130.298C134.121 125.017 131.976 121.609 130.405 119.513C129.62 118.465 128.978 117.745 128.527 117.284C128.302 117.053 128.125 116.887 128.002 116.777C127.988 116.764 127.975 116.753 127.963 116.742C127.92 116.704 127.885 116.674 127.858 116.652C127.842 116.638 127.828 116.627 127.818 116.619L127.811 116.614L127.811 116.613L127.809 116.612L127.807 116.61L127.803 116.607L127.801 116.605L127.771 116.581L127.654 116.485C127.552 116.4 127.402 116.276 127.21 116.118C126.827 115.801 126.279 115.346 125.62 114.796C124.301 113.695 122.538 112.212 120.76 110.683C118.981 109.153 117.191 107.58 115.817 106.298C115.128 105.657 114.55 105.093 114.131 104.647C113.921 104.423 113.756 104.235 113.639 104.086C113.581 104.011 113.539 103.951 113.509 103.904C113.482 103.86 113.474 103.841 113.474 103.841C113.474 103.841 113.474 103.841 113.474 103.842C113.37 103.529 113.25 102.805 113.154 101.711C113.059 100.636 112.991 99.2464 112.977 97.6344C112.949 94.41 113.135 90.3106 113.745 86.0711L113.747 86.0555L113.748 86.0398C114.329 78.7677 114.42 74.7859 113.999 67.9692L113.92 66.6964L113.113 67.6834L109.5 72.0993V65V63.2962L108.579 64.7298C97.3683 82.1868 88.9103 95.2885 71.6812 107.753C71.461 107.202 71.232 106.293 71.1489 104.993C71.036 103.226 71.1958 100.778 71.985 97.6212C72.4418 95.7942 73.5119 94.7891 74.9765 93.7517C75.2836 93.5342 75.6096 93.3146 75.9499 93.0855C77.2245 92.2272 78.6978 91.2351 80.1155 89.7161C83.7318 85.8415 86.9765 78.5976 86.9998 61.1891C87.8076 60.2922 88.2998 60.1288 88.7208 60.2545C88.9822 60.3326 89.3026 60.5407 89.7065 60.9641C90.1069 61.3839 90.5563 61.9797 91.0829 62.7758L91.3689 63.2081L91.7906 62.9069L91.5 62.5C91.7906 62.9069 91.7907 62.9068 91.7909 62.9066L91.7913 62.9064L91.7923 62.9056L91.7952 62.9035L91.8049 62.8965L91.8387 62.8715C91.8673 62.8501 91.9081 62.8191 91.9593 62.7789C92.0615 62.6985 92.2055 62.5812 92.3773 62.4299C92.7204 62.1277 93.1777 61.6868 93.6359 61.1303C94.5448 60.0267 95.5 58.4161 95.5 56.5C95.5 54.6532 94.8468 52.331 93.958 50.2996C93.5111 49.2781 92.998 48.3147 92.4641 47.5058C91.9349 46.7039 91.3663 46.0247 90.8 45.6C88.7228 44.0421 86.0876 42.9784 82.9178 43.5068C81.3928 43.7609 79.7073 44.1475 77.8888 45.1217C76.0704 46.0959 74.145 47.6433 72.1095 50.1876C70.0748 52.7311 69.0543 54.7716 68.2931 56.4844C68.1593 56.7853 68.0347 57.0728 67.9152 57.3488C67.3474 58.6591 66.8926 59.7088 66.1095 60.6876C65.5441 61.3945 62.3549 65.1784 59.4965 68.5699C57.9508 70.4038 56.5019 72.1229 55.6168 73.1788C53.0729 76.2134 45.0672 88.2474 41.0528 96.2763C39.0459 100.29 37.2911 104.301 36.0384 107.308C35.4119 108.811 34.9107 110.064 34.5659 110.942C34.3934 111.381 34.2601 111.726 34.1698 111.962C34.1247 112.079 34.0903 112.17 34.0671 112.231L34.0408 112.3L34.0342 112.318L34.0324 112.323L34.032 112.324L34.0319 112.324C34.0318 112.324 34.0318 112.324 34.5 112.5L34.0318 112.324L33.8957 112.687L34.2132 112.91L39.2133 116.41L39.5151 116.621L39.8063 116.395L59.358 101.243L65.3225 111.336C65.2203 111.401 65.1 111.477 64.9628 111.564C64.4661 111.879 63.7467 112.336 62.8553 112.907C61.0727 114.049 58.6021 115.644 55.8498 117.457C50.3493 121.083 43.7099 125.592 39.193 129.105C34.6756 132.619 26.9116 139.507 20.2893 145.504C16.9755 148.506 13.9431 151.288 11.7392 153.32C10.6372 154.336 9.74233 155.164 9.12288 155.739C8.9423 155.906 8.78513 156.052 8.65306 156.175C4.61059 147.725 1.92452 134.442 0.986267 120.471C0.0259342 106.173 0.901962 91.2337 3.9818 80.1336C13.0384 47.4925 31.665 24.283 56.1672 11.8153C80.6731 -0.654415 111.115 -2.40845 143.849 7.97657C153.141 10.9246 164.073 19.1098 173.095 27.0497C182.102 34.976 189.136 42.593 190.62 44.3254L191.033 44.807L191.405 44.293C225.234 -2.47018 288.425 -11.4473 335.72 17.9147C355.964 32.7324 376.043 53.7456 379.39 93.1352C361.676 74.6635 343.92 62.3207 325.347 56.0885C306.519 49.771 286.891 49.7452 265.677 55.9273C265.306 55.4758 264.947 55.0375 264.597 54.6115C258.439 47.1016 255.409 43.4066 248.794 38.5956L247.915 37.9562L248.002 39.0399L248.916 50.4683L239.291 43.5931L238.234 42.8384L238.512 44.1068L245.468 75.9089C237.676 88.4904 234.365 93.8831 230.533 103.82L230.514 103.87L230.506 103.923C227.745 121.751 222.514 144.203 220.514 152.381C219.722 155.623 217.971 159.206 216.068 163.101C215.609 164.042 215.14 165.001 214.674 165.978C212.297 170.959 210.011 176.359 209.502 181.955C209.459 182.428 209.362 182.987 209.24 183.64C209.212 183.786 209.184 183.937 209.154 184.092C209.054 184.621 208.944 185.198 208.843 185.81C208.58 187.398 208.37 189.254 208.503 191.288C208.769 195.378 210.418 200.125 215.665 204.871C218.68 207.598 222.843 209.476 228.879 210.985L228.943 211.001L229.01 211C241.591 210.748 247.175 207.243 249.802 202.921C251.102 200.783 251.646 198.493 251.993 196.42C252.09 195.844 252.175 195.257 252.256 194.698C252.317 194.278 252.376 193.874 252.435 193.503C252.57 192.659 252.718 191.915 252.93 191.286L269.493 176.379C270.602 175.393 271.721 174.387 272.837 173.369C278.616 168.1 283.507 162.582 287.195 158.329C287.602 157.859 287.995 157.405 288.372 156.969C289.705 155.427 290.846 154.107 291.783 153.089C292.385 152.437 292.892 151.92 293.306 151.554C293.512 151.371 293.687 151.233 293.833 151.136C293.873 151.109 293.91 151.086 293.942 151.067C294.024 151.172 294.131 151.328 294.262 151.543C294.579 152.063 294.996 152.853 295.5 153.886C296.506 155.947 297.838 158.926 299.384 162.524C302.476 169.717 306.411 179.358 310.286 189.019C314.16 198.678 317.972 208.354 320.816 215.615C322.237 219.245 323.417 222.272 324.241 224.391C324.653 225.45 324.976 226.283 325.196 226.851ZM179 227.5H178.5V228V247.5H156.5H156V248V272V272.5H156.5H178.5V292.012V292.512H179H203H203.5V292.012V272.5H224H224.5V272V248V247.5H224H203.5V228V227.5H203H179ZM72.4526 120.029C72.8502 119.557 73.1745 119.171 73.4133 118.885L76.0611 123.739L76.406 124.372L76.8778 123.827L82.8291 116.961C86.1142 125.684 87.5084 131.094 89.0055 141.074L89.059 141.43L89.4136 141.492C93.2998 142.174 95.6771 143.148 97.5252 145.053C99.3981 146.983 100.779 149.918 102.531 154.673C104.302 159.48 105.985 161.229 107.566 162.123C107.953 162.341 108.322 162.503 108.664 162.643C108.759 162.682 108.85 162.719 108.938 162.754C109.176 162.85 109.393 162.938 109.608 163.039C110.167 163.301 110.648 163.623 111.084 164.277C111.152 164.379 111.243 164.604 111.316 164.984C111.387 165.351 111.433 165.826 111.436 166.396C111.443 167.534 111.278 169.022 110.821 170.734C109.912 174.143 107.848 178.427 103.695 182.598C97.5197 186.048 92.4592 187.651 88.6931 188.577C87.4186 188.89 86.303 189.124 85.3296 189.328C84.8501 189.428 84.4052 189.522 83.9927 189.614C83.3757 189.751 82.8305 189.886 82.3715 190.038C81.9164 190.188 81.5134 190.365 81.2 190.6C80.8341 190.874 80.6232 191.267 80.5001 191.706C80.3785 192.139 80.3325 192.651 80.3204 193.216C80.307 193.848 80.3372 194.614 80.3712 195.477C80.3968 196.125 80.4245 196.828 80.4376 197.571C80.4994 201.095 80.2527 205.902 78.0318 211.824C75.7825 217.823 73.1581 224.696 71.0957 230.071C70.0646 232.758 69.174 235.07 68.5413 236.711C68.4346 236.987 68.3351 237.245 68.2436 237.482C68.0639 237.948 67.9147 238.334 67.8002 238.63L67.7975 238.637C55.8612 227.67 42.6258 212.096 32.311 199.175C27.0782 192.619 22.6013 186.752 19.4327 182.523C17.8485 180.409 16.5914 178.705 15.7306 177.529C15.3593 177.022 15.0618 176.614 14.8435 176.313C15.103 176.247 15.4253 176.16 15.8018 176.052C16.8613 175.748 18.3517 175.269 20.0818 174.571C23.5385 173.177 27.9717 170.9 31.8372 167.369L31.8718 167.338L31.9 167.3C37.1535 160.295 40.7604 155.249 43.3143 151.639C43.7491 151.025 44.1528 150.453 44.5284 149.921C46.3667 147.316 47.5331 145.664 48.3847 144.638C48.6746 144.289 49.1717 143.834 49.8408 143.273C50.3462 142.849 50.9314 142.379 51.5731 141.864C51.774 141.703 51.9804 141.537 52.1916 141.367C53.955 139.948 56.0295 138.239 57.8593 136.348C61.6746 132.404 65.6814 127.897 68.7324 124.377C70.2583 122.617 71.5461 121.103 72.4526 120.029Z" fill="#DF1B1B" stroke="#CA0000"/>
</svg>
